<svg width="223" height="50" viewBox="0 0 223 50" fill="none" xmlns="http://www.w3.org/2000/svg">
<path d="M217.697 6.55374C214.769 3.54211 210.837 1.95264 206.738 1.95264C198.791 1.95264 192.349 8.47784 192.349 16.5089C192.349 16.6762 192.349 16.9271 192.349 17.0945H197.452C197.452 16.9271 197.452 16.6762 197.452 16.5089C197.452 11.3222 201.635 7.05568 206.738 7.05568C212.511 7.05568 217.195 11.8241 217.195 17.6801C217.195 22.3648 214.602 26.3803 210.754 28.3044L212.678 33.0728C214.435 32.2363 216.024 31.0651 217.363 29.7266C220.542 26.5476 222.298 22.1975 222.298 17.6801C222.215 13.4972 220.625 9.56538 217.697 6.55374" fill="#D7282F"/>
<path d="M219.705 17.0945H214.602C214.602 17.2618 214.602 17.5127 214.602 17.6801C214.602 22.8668 210.419 27.1332 205.316 27.1332C199.711 27.1332 195.194 22.6994 194.943 17.0945H192.349C192.349 16.9272 192.349 16.6762 192.349 16.5089C192.349 10.8202 195.612 5.80084 200.38 3.45846L199.376 1.11607C197.62 1.95264 196.03 3.12383 194.692 4.46233C191.513 7.64128 189.756 11.9914 189.756 16.5089C189.756 20.6917 191.345 24.6235 194.273 27.6352C197.201 30.6468 201.133 32.3199 205.316 32.3199C213.263 32.3199 219.705 25.7947 219.705 17.7637C219.705 17.5127 219.705 17.2618 219.705 17.0945" fill="#FDBB30"/>
<path fill-rule="evenodd" clip-rule="evenodd" d="M194.608 46.2906C194.608 47.7127 195.779 48.8839 197.201 48.8839C198.624 48.8839 199.795 47.7127 199.795 46.2906C199.795 44.8684 198.624 43.6972 197.201 43.6972C195.779 43.6972 194.608 44.8684 194.608 46.2906ZM195.11 46.2906C195.11 45.1194 196.03 44.1992 197.201 44.1992C198.373 44.1992 199.293 45.1194 199.293 46.2906C199.293 47.5454 198.373 48.4657 197.201 48.4657C196.03 48.4657 195.11 47.4618 195.11 46.2906ZM198.54 47.7127H197.954L197.452 46.7089H196.783V47.7127H196.281V44.8684H197.703C198.289 44.8684 198.707 45.203 198.707 45.7886C198.707 46.2069 198.456 46.5416 198.122 46.6252L198.54 47.7127ZM197.954 45.7886C197.954 46.1233 197.787 46.2069 197.536 46.2069V46.2906H196.699V45.3704H197.536C197.787 45.3704 197.954 45.454 197.954 45.7886Z" fill="#D7282F"/>
<path fill-rule="evenodd" clip-rule="evenodd" d="M170.348 39.6817L167.671 46.2069L163.739 40.2673L173.527 17.0108H179.383L192.6 48.7166H186.075L182.562 39.6817H170.348ZM176.455 24.7072L172.606 34.0767H180.303L176.455 24.7072Z" fill="#D7282F"/>
<path fill-rule="evenodd" clip-rule="evenodd" d="M150.856 17.2618H137.722V46.2069H144.08V36.921H149.099L155.29 46.2069H162.735L155.624 35.8335C159.305 34.495 161.815 31.567 161.815 26.8823V26.7986C161.815 24.038 160.895 21.7792 159.305 20.1898C157.381 18.2657 154.537 17.2618 150.856 17.2618ZM155.29 27.2169C155.29 29.6429 153.533 31.3161 150.437 31.3161H143.912V23.0341H150.27C153.365 23.0341 155.29 24.3726 155.29 27.1332V27.2169Z" fill="#D7282F"/>
<path fill-rule="evenodd" clip-rule="evenodd" d="M123.165 17.0945H117.309L104.761 46.2069H111.286L113.963 39.6817H126.177L128.854 46.2069H135.547L123.165 17.0945ZM120.154 24.7072L124.002 34.0767H116.306L120.154 24.7072Z" fill="#D7282F"/>
<path d="M99.0723 23.1177H107.94V17.2618H83.8469V23.1177H92.7145V46.2069H99.0723V38.0922V23.1177Z" fill="#D7282F"/>
<path fill-rule="evenodd" clip-rule="evenodd" d="M70.5455 17.2618H57.4114V46.2069H63.7693V36.921H68.7887L74.9793 46.2069H82.4247L75.3139 35.8335C78.9948 34.495 81.5045 31.567 81.5045 26.8823V26.7986C81.5045 24.038 80.5843 21.7792 78.9948 20.1898C77.0707 18.2657 74.2264 17.2618 70.5455 17.2618ZM75.063 27.2169C75.063 29.6429 73.3062 31.3161 70.2109 31.3161H63.6857V23.0341H70.0436C73.1389 23.0341 75.063 24.3726 75.063 27.1332V27.2169Z" fill="#D7282F"/>
<path d="M30.3904 17.2618H52.2247V22.9504H36.6646V28.8064H50.3006V34.495H36.6646V40.5183H52.392V46.2069H30.3904V17.2618Z" fill="#D7282F"/>
<path d="M6.71559 31.4834V31.4834C6.71559 36.4191 10.1455 40.6856 15.0812 40.6856C18.4275 40.6856 20.4353 39.3471 22.694 37.3393L26.7095 41.4385C23.6979 44.6174 20.4353 46.6252 14.8303 46.6252C6.29731 46.6252 0.0230713 39.9327 0.0230713 31.567C0.0230713 23.285 6.38096 16.5089 14.8303 16.5089C20.4353 16.5089 23.6979 18.5166 26.7095 21.6956L22.694 25.7947C20.4353 23.7033 18.4275 22.4485 15.0812 22.4485C10.1455 22.2812 6.71559 26.5476 6.71559 31.4834" fill="#D7282F"/>
</svg>
